<svg xmlns="http://www.w3.org/2000/svg" xmlns:xlink="http://www.w3.org/1999/xlink" viewBox="0 0 962.42 634.6"><defs><style>.cls-1{fill:none;}.cls-2{clip-path:url(#clip-path);}.cls-3{fill:url(#linear-gradient);}.cls-4{clip-path:url(#clip-path-2);}.cls-5{opacity:0.72;}.cls-6,.cls-7,.cls-8,.cls-9{opacity:0.65;isolation:isolate;}.cls-6{fill:url(#linear-gradient-2);}.cls-7{fill:url(#linear-gradient-3);}.cls-8{fill:url(#linear-gradient-4);}.cls-9{fill:url(#linear-gradient-5);}</style><clipPath id="clip-path" transform="translate(204.76 55.05)"><path id="Path_75" data-name="Path 75" class="cls-1" d="M0,0H412V362a79,79,0,0,1-79,79H79A79,79,0,0,1,0,362Z"/></clipPath><linearGradient id="linear-gradient" x1="-5468.27" y1="-1691.27" x2="-5468.27" y2="-1690.3" gradientTransform="matrix(412, 0, 0, -441, 2253134.88, -745408.57)" gradientUnits="userSpaceOnUse"><stop offset="0" stop-color="#53a5c9"/><stop offset="1" stop-color="#96dae9"/></linearGradient><clipPath id="clip-path-2" transform="translate(204.76 55.05)"><rect class="cls-1" x="-151.23" width="714.46" height="441"/></clipPath><linearGradient id="linear-gradient-2" x1="-5475.21" y1="-1690.38" x2="-5474.21" y2="-1690.38" gradientTransform="matrix(767.99, 0, 0, -465.03, 4204684.09, -785878.73)" gradientUnits="userSpaceOnUse"><stop offset="0.1" stop-color="#8bd4f5"/><stop offset="1" stop-color="#0272bc"/></linearGradient><linearGradient id="linear-gradient-3" x1="-5473.29" y1="-1690.27" x2="-5472.12" y2="-1690.27" gradientTransform="matrix(767.99, 0, 0, -474.42, 4204684.09, -801699.18)" xlink:href="#linear-gradient-2"/><linearGradient id="linear-gradient-4" x1="-5487.67" y1="-1680.56" x2="-5486.67" y2="-1680.56" gradientTransform="matrix(-943.44, 0, 0, 554.54, -5176533.23, 932207.11)" xlink:href="#linear-gradient-2"/><linearGradient id="linear-gradient-5" x1="-5485.76" y1="-1680.63" x2="-5484.59" y2="-1680.63" gradientTransform="matrix(-943.44, 0, 0, 564.36, -5176533.23, 948774.25)" xlink:href="#linear-gradient-2"/></defs><g id="Layer_2" data-name="Layer 2"><g id="Layer_1-2" data-name="Layer 1"><g class="cls-2"><path id="Path_75-2" data-name="Path 75" class="cls-3" d="M0,0H412V362a79,79,0,0,1-79,79H79A79,79,0,0,1,0,362Z" transform="translate(204.76 55.05)"/><g class="cls-4"><g id="Group_23" data-name="Group 23" class="cls-5"><path id="Path_76" data-name="Path 76" class="cls-6" d="M-204.76-45.24c71,78.24,98,448.46,356.76,272.69C309.13,120.69,467.28,331.16,563.23,335.87V441h-768Z" transform="translate(204.76 55.05)"/><path id="Path_77" data-name="Path 77" class="cls-7" d="M563.23-55c-71.05,79.81-98,457.51-356.76,278.19C49.34,114.23-108.81,328.94-204.76,333.75V441h768Z" transform="translate(204.76 55.05)"/></g><g id="Group_24" data-name="Group 24" class="cls-5"><path id="Path_76-2" data-name="Path 76-2" class="cls-8" d="M757.66,569.27C670.38,476,637.22,34.5,319.4,244.1c-193,127.3-387.31-123.67-505.18-129.29V-10.55H757.66Z" transform="translate(204.76 55.05)"/><path id="Path_77-2" data-name="Path 77-2" class="cls-9" d="M-185.78,579.55C-98.5,484.6-65.34,35.3,252.49,248.61c193,129.56,387.3-125.86,505.17-131.57V-10.55H-185.78Z" transform="translate(204.76 55.05)"/></g></g></g></g></g></svg>